<svg width="1156" height="364" viewBox="0 0 1156 364" fill="none" xmlns="http://www.w3.org/2000/svg">
<path d="M35.3398 267.71C36.2798 269.46 37.2398 271.19 38.2498 272.89V267.71H35.3398ZM63.9298 305.96C67.9098 309.9 72.1098 313.64 76.4898 317.15V305.96H63.9298ZM325.09 132.73V133.85H325.53C325.39 133.47 325.24 133.1 325.09 132.73ZM267.72 95.6H286.84V76.48H267.72V95.6ZM114.73 339.86C118.52 341.46 122.4 342.9 126.34 344.2H133.85V325.08H114.73V339.86ZM76.4898 286.9H95.6098V267.78H76.4898V286.9ZM286.84 76.31V76.48H287.02C286.96 76.42 286.9 76.37 286.84 76.31Z" fill="#3C7BCD"/>
<path d="M76.4901 305.97H57.3701V325.09H76.4901V305.97Z" fill="white"/>
<path d="M95.6102 286.84H76.4902V286.91H95.6102V286.84Z" fill="white"/>
<path d="M95.6102 267.79H76.4902V286.91H95.6102V267.79Z" fill="#514F63"/>
<path d="M286.84 76.49H267.72V95.61H286.84V76.49Z" fill="#514F63"/>
<path d="M325.53 133.86H325.09V132.74C325.24 133.11 325.39 133.48 325.53 133.86Z" fill="white"/>
<path d="M331.65 152.98H305.99V133.86H325.08V114.74H267.73V95.62H267.71V76.5H229.47V41.15C212.88 35.33 195.04 32.16 176.46 32.16C88.0699 32.16 16.4199 103.81 16.4199 192.19C16.4199 205.03 17.9299 217.51 20.7899 229.47H57.3599V248.59H38.2399V267.71H76.4799V267.79H95.5999V286.84H114.72V325.08H133.84V344.2H126.33C142.1 349.4 158.94 352.21 176.45 352.21C264.83 352.21 336.48 280.56 336.48 192.18C336.48 178.65 334.81 165.52 331.64 152.97L331.65 152.98ZM176.46 292.15C121.25 292.15 76.4999 247.39 76.4999 192.19C76.4999 136.99 121.25 92.23 176.46 92.23C231.66 92.23 276.41 136.99 276.41 192.19C276.41 247.39 231.65 292.15 176.46 292.15Z" fill="#3C7BCD"/>
<path d="M325.09 0H305.97V19.12H325.09V0Z" fill="#3C7BCD"/>
<path d="M133.85 325.09H114.73V344.21H133.85V325.09Z" fill="#3C7BCD"/>
<path d="M114.73 344.21H95.6099V363.33H114.73V344.21Z" fill="#3C7BCD"/>
<path d="M38.24 267.71H0V305.96H38.24V267.71Z" fill="#514F63"/>
<path d="M344.22 57.37H305.97V95.62H344.22V57.37Z" fill="#514F63"/>
<path d="M286.84 19.12H248.6V57.36H286.84V19.12Z" fill="#514F63"/>
<path d="M57.3601 325.09H19.1201V363.33H57.3601V325.09Z" fill="#514F63"/>
<path d="M76.4901 305.97H57.3701V325.09H76.4901V305.97Z" fill="#3C7BCD"/>
<path d="M424 239V132.5H440.8V239H424ZM554.419 239V163.1L523.069 220.7H513.169L481.669 163.1V239H464.869V132.5H482.869L518.119 197.6L553.369 132.5H571.369V239H554.419ZM626.137 132.5H642.037L683.437 239H665.737L654.487 210.05H613.387L602.287 239H584.437L626.137 132.5ZM651.187 197.6L634.087 150.95L616.387 197.6H651.187ZM736.006 239.75C729.006 239.75 722.456 238.3 716.356 235.4C710.256 232.5 704.906 228.5 700.306 223.4C695.806 218.3 692.256 212.5 689.656 206C687.156 199.5 685.906 192.6 685.906 185.3C685.906 178 687.156 171.15 689.656 164.75C692.256 158.35 695.806 152.65 700.306 147.65C704.906 142.65 710.256 138.75 716.356 135.95C722.556 133.15 729.306 131.75 736.606 131.75C746.706 131.75 755.206 133.9 762.106 138.2C769.106 142.4 774.356 148 777.856 155L764.956 164.3C762.156 158.5 758.156 154.15 752.956 151.25C747.856 148.35 742.256 146.9 736.156 146.9C731.156 146.9 726.606 147.95 722.506 150.05C718.406 152.15 714.856 155.05 711.856 158.75C708.956 162.35 706.756 166.5 705.256 171.2C703.756 175.8 703.006 180.65 703.006 185.75C703.006 191.15 703.856 196.2 705.556 200.9C707.256 205.6 709.656 209.75 712.756 213.35C715.856 216.85 719.506 219.6 723.706 221.6C727.906 223.6 732.456 224.6 737.356 224.6C743.156 224.6 748.656 223.15 753.856 220.25C759.156 217.25 764.106 212.8 768.706 206.9V224C759.406 234.5 748.506 239.75 736.006 239.75ZM767.056 197.6H744.706V185.15H781.156V239H767.056V197.6ZM800.318 239V132.5H817.118V239H800.318ZM857.988 163.7V239H841.188V132.5H854.988L915.288 209.45V132.65H932.238V239H917.538L857.988 163.7ZM986.928 132.5H1002.83L1044.23 239H1026.53L1015.28 210.05H974.178L963.078 239H945.228L986.928 132.5ZM1011.98 197.6L994.878 150.95L977.178 197.6H1011.98ZM1055.3 239V160.55H1071.8V239H1055.3ZM1055.3 147.65V129.5H1071.8V147.65H1055.3Z" fill="#1E1E1E"/>
</svg>
